<svg width="55" height="58" viewBox="0 0 55 58" fill="none" xmlns="http://www.w3.org/2000/svg">
<path d="M20.348 42.2893L20.9631 44.3279C23.0432 37.413 28.5471 32.08 35.4916 30.2453L41.9262 28.5492L35.4916 26.8531C28.5471 25.0265 23.0513 19.6936 20.9631 12.7705C18.883 19.6854 13.3792 25.0184 6.43462 26.8531L0 28.5492L8.48237 30.7835C14.1562 32.2757 18.6483 36.6302 20.348 42.2811V42.2893Z" fill="#FF6B6B"/>
<path d="M42.0881 55.9749L42.377 57.4016C43.361 52.5524 45.9694 48.8253 49.2494 47.5428L52.2951 46.3565L49.2494 45.1703C45.9616 43.8878 43.361 40.1527 42.377 35.3115C41.393 40.1607 38.7847 43.8878 35.5047 45.1703L32.459 46.3565L36.4731 47.9195C39.1595 48.9695 41.2837 52.0153 42.0881 55.9749Z" fill="#FF6B6B"/>
<path d="M42.0881 21.2618L42.377 22.6886C43.361 17.8393 45.9694 14.1122 49.2494 12.8297L52.2951 11.6435L49.2494 10.4572C45.9694 9.17476 43.3688 5.44765 42.377 0.598389C41.393 5.44765 38.7847 9.17476 35.5047 10.4572L32.459 11.6435L36.4731 13.2065C39.1595 14.2565 41.2837 17.3023 42.0881 21.2618Z" fill="#FF6B6B"/>
<path d="M26.0388 11.3978L26.1476 11.8689C26.5074 10.2857 27.453 9.06549 28.6496 8.64846L29.7541 8.26232L28.6496 7.87618C27.453 7.45915 26.5074 6.23894 26.1476 4.65576C25.7878 6.23894 24.8422 7.45915 23.6456 7.87618L22.541 8.26232L23.997 8.77202C24.9761 9.11183 25.7459 10.1081 26.0388 11.4055V11.3978Z" fill="#FF6B6B"/>
<path d="M51.517 31.6847L51.6189 32.1558C51.9563 30.5726 52.8427 29.3524 53.9646 28.9353L55.0001 28.5492L53.9646 28.1631C52.8427 27.746 51.9563 26.5258 51.6189 24.9426C51.2816 26.5258 50.3951 27.746 49.2733 28.1631L48.2378 28.5492L49.6028 29.0589C50.5207 29.3987 51.2424 30.395 51.517 31.6924V31.6847Z" fill="#FF6B6B"/>
</svg>
