<svg width="22" height="23" viewBox="0 0 22 23" fill="none" xmlns="http://www.w3.org/2000/svg">
<g clip-path="url(#clip0_326_158)">
<path d="M11 2.51272C13.9391 2.51272 14.2871 2.52561 15.443 2.57717C16.5172 2.62444 17.0973 2.80491 17.484 2.9553C17.9953 3.15295 18.3648 3.39358 18.7473 3.776C19.134 4.16272 19.3703 4.52795 19.568 5.03928C19.7184 5.426 19.8988 6.01038 19.9461 7.0803C19.9977 8.24045 20.0105 8.5885 20.0105 11.5233C20.0105 14.4623 19.9977 14.8104 19.9461 15.9662C19.8988 17.0405 19.7184 17.6205 19.568 18.0073C19.3703 18.5186 19.1297 18.8881 18.7473 19.2705C18.3605 19.6573 17.9953 19.8936 17.484 20.0912C17.0973 20.2416 16.5129 20.4221 15.443 20.4694C14.2828 20.5209 13.9348 20.5338 11 20.5338C8.06094 20.5338 7.71289 20.5209 6.55703 20.4694C5.48281 20.4221 4.90273 20.2416 4.51602 20.0912C4.00469 19.8936 3.63516 19.653 3.25273 19.2705C2.86602 18.8838 2.62969 18.5186 2.43203 18.0073C2.28164 17.6205 2.10117 17.0362 2.05391 15.9662C2.00234 14.8061 1.98945 14.458 1.98945 11.5233C1.98945 8.5842 2.00234 8.23616 2.05391 7.0803C2.10117 6.00608 2.28164 5.426 2.43203 5.03928C2.62969 4.52795 2.87031 4.15842 3.25273 3.776C3.63945 3.38928 4.00469 3.15295 4.51602 2.9553C4.90273 2.80491 5.48711 2.62444 6.55703 2.57717C7.71289 2.52561 8.06094 2.51272 11 2.51272ZM11 0.53186C8.01367 0.53186 7.63984 0.544751 6.4668 0.596313C5.29805 0.647876 4.49453 0.836938 3.79844 1.10764C3.07227 1.39124 2.45781 1.76506 1.84766 2.37952C1.2332 2.98967 0.859375 3.60413 0.575781 4.326C0.305078 5.02639 0.116016 5.82561 0.0644531 6.99436C0.0128906 8.1717 0 8.54553 0 11.5319C0 14.5182 0.0128906 14.892 0.0644531 16.0651C0.116016 17.2338 0.305078 18.0373 0.575781 18.7334C0.859375 19.4596 1.2332 20.074 1.84766 20.6842C2.45781 21.2944 3.07227 21.6725 3.79414 21.9518C4.49453 22.2225 5.29375 22.4115 6.4625 22.4631C7.63555 22.5147 8.00937 22.5276 10.9957 22.5276C13.982 22.5276 14.3559 22.5147 15.5289 22.4631C16.6977 22.4115 17.5012 22.2225 18.1973 21.9518C18.9191 21.6725 19.5336 21.2944 20.1437 20.6842C20.7539 20.074 21.132 19.4596 21.4113 18.7377C21.682 18.0373 21.8711 17.2381 21.9227 16.0694C21.9742 14.8963 21.9871 14.5225 21.9871 11.5362C21.9871 8.54983 21.9742 8.176 21.9227 7.00295C21.8711 5.8342 21.682 5.03069 21.4113 4.33459C21.1406 3.60413 20.7668 2.98967 20.1523 2.37952C19.5422 1.76936 18.9277 1.39124 18.2059 1.11194C17.5055 0.841235 16.7063 0.652173 15.5375 0.60061C14.3602 0.544751 13.9863 0.53186 11 0.53186Z" fill="#FF6B6B"/>
<path d="M11 5.88147C7.88047 5.88147 5.34961 8.41233 5.34961 11.5319C5.34961 14.6514 7.88047 17.1823 11 17.1823C14.1195 17.1823 16.6504 14.6514 16.6504 11.5319C16.6504 8.41233 14.1195 5.88147 11 5.88147ZM11 15.1971C8.97617 15.1971 7.33477 13.5557 7.33477 11.5319C7.33477 9.50803 8.97617 7.86663 11 7.86663C13.0238 7.86663 14.6652 9.50803 14.6652 11.5319C14.6652 13.5557 13.0238 15.1971 11 15.1971Z" fill="#FF6B6B"/>
<path d="M18.193 5.65799C18.193 6.38846 17.6 6.97714 16.8738 6.97714C16.1434 6.97714 15.5547 6.38417 15.5547 5.65799C15.5547 4.92752 16.1477 4.33885 16.8738 4.33885C17.6 4.33885 18.193 4.93182 18.193 5.65799Z" fill="#FF6B6B"/>
</g>
<defs>
<clipPath id="clip0_326_158">
<rect width="22" height="22" fill="white" transform="translate(0 0.53186)"/>
</clipPath>
</defs>
</svg>
