<svg width="20" height="26" viewBox="0 0 20 26" fill="none" xmlns="http://www.w3.org/2000/svg">
<path fill-rule="evenodd" clip-rule="evenodd" d="M10 25.5319C10 25.5319 0 20.4139 0 10.3145C0 4.91175 4.47722 0.53186 10 0.53186C15.5228 0.53186 20 4.91175 20 10.3145C20 20.4139 10 25.5319 10 25.5319ZM10 1.61882C5.09889 1.61882 1.11111 5.5199 1.11111 10.3145C1.11111 18.3351 8.03445 23.0868 10.0017 24.2748C11.9706 23.0916 18.8889 18.3607 18.8889 10.3145C18.8889 5.5199 14.9011 1.61882 10 1.61882ZM10 15.2058C7.23833 15.2058 5 13.0161 5 10.3145C5 7.61284 7.23833 5.42316 10 5.42316C12.7617 5.42316 15 7.61284 15 10.3145C15 13.0161 12.7617 15.2058 10 15.2058ZM10 6.51012C9.4893 6.51012 8.98361 6.60852 8.51179 6.79971C8.03997 6.9909 7.61126 7.27112 7.25014 7.62439C6.88902 7.97766 6.60257 8.39704 6.40714 8.85861C6.2117 9.32017 6.11111 9.81487 6.11111 10.3145C6.11111 10.8141 6.2117 11.3088 6.40714 11.7703C6.60257 12.2319 6.88902 12.6513 7.25014 13.0045C7.61126 13.3578 8.03997 13.638 8.51179 13.8292C8.98361 14.0204 9.4893 14.1188 10 14.1188C11.0314 14.1188 12.0206 13.718 12.7499 13.0045C13.4792 12.2911 13.8889 11.3234 13.8889 10.3145C13.8889 9.30549 13.4792 8.33784 12.7499 7.62439C12.0206 6.91094 11.0314 6.51012 10 6.51012Z" fill="#D1D5D6"/>
</svg>
