<svg width="20" height="16" viewBox="0 0 20 16" fill="none" xmlns="http://www.w3.org/2000/svg">
<path d="M19.791 2.33782L18.9977 1.54449L11.6491 8.89314C10.7305 9.81172 9.1856 9.81172 8.26702 8.89314L0.918373 1.58625L0.125053 2.37957L5.59478 7.8493L0.125053 13.319L0.918373 14.1123L6.3881 8.64262L7.4737 9.72821C8.14175 10.3963 9.01858 10.7721 9.93716 10.7721C10.8557 10.7721 11.7326 10.3963 12.4006 9.72821L13.4862 8.64262L18.9559 14.1123L19.7493 13.319L14.2795 7.8493L19.791 2.33782Z" fill="#D1D5D6"/>
<path d="M18.2463 15.5318H1.75366C0.793321 15.5318 0 14.7385 0 13.7782V2.00365C0 1.04332 0.793321 0.25 1.75366 0.25H18.2463C19.2067 0.25 20 1.04332 20 2.00365V13.7782C20 14.7385 19.2067 15.5318 18.2463 15.5318ZM1.7119 1.37735C1.37787 1.37735 1.12735 1.62787 1.12735 1.9619V13.7364C1.12735 14.0705 1.37787 14.321 1.7119 14.321H18.2046C18.5386 14.321 18.7891 14.0705 18.7891 13.7364V1.9619C18.7891 1.62787 18.5386 1.37735 18.2046 1.37735H1.7119Z" fill="#D1D5D6"/>
</svg>
