<svg width="22" height="22" viewBox="0 0 22 22" fill="none" xmlns="http://www.w3.org/2000/svg">
<path d="M14.002 1.36647C15.4796 1.76303 16.8269 2.54128 17.9088 3.6231C18.9906 4.70492 19.7688 6.05225 20.1654 7.52988M13.0982 4.7313C13.9869 4.96733 14.7974 5.43409 15.4476 6.08428C16.0978 6.73448 16.5645 7.545 16.8006 8.43371M6.71695 10.6007C7.61339 12.4519 9.11031 13.945 10.9638 14.8367C11.1005 14.9014 11.2518 14.9294 11.4026 14.918C11.5535 14.9065 11.6987 14.856 11.8241 14.7714L14.5464 12.9528C14.6667 12.8712 14.8057 12.8215 14.9504 12.8081C15.0951 12.7948 15.2409 12.8184 15.374 12.8766L20.4703 15.0654C20.6445 15.1379 20.79 15.2656 20.8844 15.4289C20.9789 15.5922 21.017 15.7821 20.993 15.9692C20.8315 17.2299 20.2161 18.3886 19.2621 19.2284C18.308 20.0682 17.0806 20.5316 15.8096 20.5319C11.8819 20.5319 8.11498 18.9716 5.33764 16.1942C2.5603 13.4169 1 9.65 1 5.72224C1.00029 4.45122 1.46369 3.22386 2.30349 2.26981C3.1433 1.31576 4.30196 0.700397 5.56267 0.538872C5.74979 0.514836 5.93963 0.552978 6.10294 0.647426C6.26626 0.741874 6.394 0.887389 6.46649 1.06156L8.65527 6.16871C8.71219 6.29976 8.736 6.4428 8.7246 6.58522C8.71321 6.72764 8.66696 6.86508 8.58993 6.98541L6.7714 9.75133C6.69043 9.87643 6.64292 10.0202 6.63338 10.1689C6.62385 10.3176 6.65262 10.4663 6.71695 10.6007Z" stroke="#D1D5D6" stroke-linecap="round" stroke-linejoin="round"/>
</svg>
