<svg width="35" height="27" viewBox="0 0 35 27" fill="none" xmlns="http://www.w3.org/2000/svg">
<path opacity="0.2" d="M26.868 0.400001C28.4013 0.400001 29.7346 0.800001 30.868 1.6C32.0013 2.46667 32.868 3.63334 33.468 5.1C34.068 6.56667 34.368 8.23333 34.368 10.1C34.368 12.3667 34.0013 14.5333 33.268 16.6C32.468 18.7333 31.268 20.7 29.668 22.5C28.068 24.3 26.0013 25.8 23.468 27L19.268 23.1C21.068 22.5 22.668 21.6667 24.068 20.6C25.4013 19.5333 26.5013 18.3333 27.368 17C28.168 15.6667 28.7346 14.3 29.068 12.9L28.668 12.7C28.4013 12.9 28.068 13.0667 27.668 13.2C27.268 13.3333 26.668 13.4 25.868 13.4C25.068 13.4 24.2346 13.1667 23.368 12.7C22.5013 12.2333 21.8013 11.5333 21.268 10.6C20.668 9.73333 20.368 8.56667 20.368 7.1C20.368 5.9 20.668 4.8 21.268 3.8C21.8013 2.8 22.568 1.96667 23.568 1.3C24.568 0.700001 25.668 0.400001 26.868 0.400001ZM8.06797 0.400001C9.6013 0.400001 10.9346 0.800001 12.068 1.6C13.2013 2.46667 14.068 3.63334 14.668 5.1C15.268 6.56667 15.568 8.23333 15.568 10.1C15.568 12.3667 15.2013 14.5333 14.468 16.6C13.668 18.7333 12.468 20.7 10.868 22.5C9.26797 24.3 7.2013 25.8 4.66797 27L0.467969 23.1C2.26797 22.5 3.86797 21.6667 5.26797 20.6C6.6013 19.5333 7.7013 18.3333 8.56797 17C9.36797 15.6667 9.93464 14.3 10.268 12.9L9.86797 12.7C9.6013 12.9 9.26797 13.0667 8.86797 13.2C8.46797 13.3333 7.86797 13.4 7.06797 13.4C6.26797 13.4 5.43464 13.1667 4.56797 12.7C3.7013 12.2333 3.0013 11.5333 2.46797 10.6C1.86797 9.73333 1.56797 8.56667 1.56797 7.1C1.56797 5.9 1.86797 4.8 2.46797 3.8C3.0013 2.8 3.76797 1.96667 4.76797 1.3C5.76797 0.700001 6.86797 0.400001 8.06797 0.400001Z" fill="#D1D5D6"/>
</svg>
