<svg width="28" height="21" viewBox="0 0 28 21" fill="none" xmlns="http://www.w3.org/2000/svg">
<path d="M27.7211 4.84733C27.7211 4.84733 27.4477 2.88676 26.6055 2.02589C25.5391 0.892871 24.3469 0.887317 23.8 0.820669C19.8844 0.53186 14.0055 0.53186 14.0055 0.53186H13.9945C13.9945 0.53186 8.11562 0.53186 4.2 0.820669C3.65313 0.887317 2.46094 0.892871 1.39453 2.02589C0.552344 2.88676 0.284375 4.84733 0.284375 4.84733C0.284375 4.84733 0 7.15224 0 9.45161V11.6066C0 13.9059 0.278906 16.2108 0.278906 16.2108C0.278906 16.2108 0.552344 18.1714 1.38906 19.0323C2.45547 20.1653 3.85547 20.1264 4.47891 20.2486C6.72109 20.4652 14 20.5319 14 20.5319C14 20.5319 19.8844 20.5208 23.8 20.2375C24.3469 20.1708 25.5391 20.1653 26.6055 19.0323C27.4477 18.1714 27.7211 16.2108 27.7211 16.2108C27.7211 16.2108 28 13.9115 28 11.6066V9.45161C28 7.15224 27.7211 4.84733 27.7211 4.84733ZM11.107 14.2225V6.23028L18.6703 10.2403L11.107 14.2225Z" fill="#FF6B6B"/>
</svg>
