<svg width="207" height="59" viewBox="0 0 207 59" fill="none" xmlns="http://www.w3.org/2000/svg">
<g clip-path="url(#clip0_430_150)">
<path d="M5 47.801C5.83333 47.801 7.9 47.201 9.5 44.801C10.1667 43.801 11.7 41.3009 12.5 39.3009H13C12.5 40.6342 11.7 43.701 12.5 45.301C12.8333 46.1343 14.2 47.801 17 47.801V48.301H5V47.801Z" fill="white"/>
<path d="M17.3398 35.5259L17.5 36.301C18.0456 33.6667 19.4921 31.642 21.311 30.9453L23 30.301L21.311 29.6565C19.4921 28.9599 18.05 26.9352 17.5 24.301C16.9543 26.9352 15.5079 28.9599 13.689 29.6565L12 30.301L14.226 31.15C15.7157 31.7204 16.8937 33.375 17.3398 35.5259Z" fill="#FF6B6B"/>
<path d="M27.5 47.7938C29.3333 47.9628 32.6 47.1855 31 42.7235L27.5 33.5967L22.5 21.9348C21.8333 20.5826 20.2 17.3713 19 15.3432C20.1667 15.1741 22.9 14.3291 24.5 12.3009L27.5 19.3995L31 28.0193L35.5 38.6671L37 42.2164C38 44.2446 39.8 48.1994 43 47.7938V48.3008H27.5V47.7938Z" fill="white"/>
</g>
<line x1="60.5" y1="53.9005" x2="60.5" y2="5.90045" stroke="white"/>
<path d="M79.4 25.9005L84.36 11.5005H86.31L91.27 25.9005H89.74L85.03 12.3205H85.61L80.93 25.9005H79.4ZM81.61 22.4105V21.0305H89.05V22.4105H81.61ZM103.276 25.9005V11.5005H104.746V24.4905H111.586V25.9005H103.276ZM123.491 25.9005V11.5005H124.961V25.9005H123.491ZM143.789 26.2005C142.355 26.2005 141.145 25.8838 140.159 25.2505C139.172 24.6105 138.425 23.7271 137.919 22.6005C137.412 21.4738 137.159 20.1738 137.159 18.7005C137.159 17.2271 137.412 15.9271 137.919 14.8005C138.425 13.6738 139.172 12.7938 140.159 12.1605C141.145 11.5205 142.355 11.2005 143.789 11.2005C145.462 11.2005 146.829 11.6305 147.889 12.4905C148.949 13.3438 149.675 14.4905 150.069 15.9305L148.569 16.3205C148.262 15.1805 147.712 14.2771 146.919 13.6105C146.125 12.9438 145.082 12.6105 143.789 12.6105C142.662 12.6105 141.725 12.8671 140.979 13.3805C140.232 13.8938 139.669 14.6105 139.289 15.5305C138.915 16.4438 138.722 17.5005 138.709 18.7005C138.702 19.9005 138.885 20.9571 139.259 21.8705C139.639 22.7838 140.205 23.5005 140.959 24.0205C141.719 24.5338 142.662 24.7905 143.789 24.7905C145.082 24.7905 146.125 24.4571 146.919 23.7905C147.712 23.1171 148.262 22.2138 148.569 21.0805L150.069 21.4705C149.675 22.9105 148.949 24.0605 147.889 24.9205C146.829 25.7738 145.462 26.2005 143.789 26.2005ZM162.275 25.9005V11.5005H171.275V12.9105H163.745V17.8905H170.075V19.3005H163.745V24.4905H171.275V25.9005H162.275ZM80.4 49.9005V35.5005H84.77C84.9233 35.5005 85.1833 35.5038 85.55 35.5105C85.9233 35.5171 86.28 35.5438 86.62 35.5905C87.7133 35.7438 88.6267 36.1505 89.36 36.8105C90.0933 37.4705 90.6433 38.3105 91.01 39.3305C91.3767 40.3505 91.56 41.4738 91.56 42.7005C91.56 43.9271 91.3767 45.0505 91.01 46.0705C90.6433 47.0905 90.0933 47.9305 89.36 48.5905C88.6267 49.2505 87.7133 49.6571 86.62 49.8105C86.2867 49.8505 85.93 49.8771 85.55 49.8905C85.17 49.8971 84.91 49.9005 84.77 49.9005H80.4ZM81.92 48.4905H84.77C85.0433 48.4905 85.3367 48.4838 85.65 48.4705C85.97 48.4505 86.2433 48.4171 86.47 48.3705C87.31 48.2238 87.9867 47.8838 88.5 47.3505C89.02 46.8171 89.4 46.1505 89.64 45.3505C89.88 44.5438 90 43.6605 90 42.7005C90 41.7338 89.88 40.8471 89.64 40.0405C89.4 39.2338 89.02 38.5671 88.5 38.0405C87.98 37.5138 87.3033 37.1771 86.47 37.0305C86.2433 36.9838 85.9667 36.9538 85.64 36.9405C85.32 36.9205 85.03 36.9105 84.77 36.9105H81.92V48.4905ZM103.838 49.9005V35.5005H112.838V36.9105H105.308V41.8905H111.638V43.3005H105.308V48.4905H112.838V49.9005H103.838ZM125.244 49.9005V35.5005H126.724L134.654 47.3005V35.5005H136.134V49.9005H134.654L126.724 38.0905V49.9005H125.244ZM152.765 49.9005V36.9105H147.735V35.5005H159.265V36.9105H154.235V49.9005H152.765ZM169.478 49.9005L174.438 35.5005H176.388L181.348 49.9005H179.818L175.108 36.3205H175.688L171.008 49.9005H169.478ZM171.688 46.4105V45.0305H179.128V46.4105H171.688ZM193.354 49.9005V35.5005H194.824V48.4905H201.664V49.9005H193.354Z" fill="white"/>
<defs>
<clipPath id="clip0_430_150">
<rect width="38" height="37" fill="white" transform="translate(5 11.4005)"/>
</clipPath>
</defs>
</svg>
