<svg width="224" height="70" viewBox="0 0 224 70" fill="none" xmlns="http://www.w3.org/2000/svg">
<path d="M71.4509 25.5915H44.1662L35.7385 0.0388184L27.2843 25.5915L0 25.5654L22.0962 41.3739L13.642 66.9005L35.7385 51.1181L57.8086 66.9005L49.3808 41.3739L71.4509 25.5912V25.5915Z" fill="#04DA8D"/>
<path d="M51.2772 47.1532L49.3808 41.3739L35.7385 51.1181L51.2772 47.1532Z" fill="#126849"/>
<path d="M83.4677 14.9005H102.69V18.475H95.1317V38.5697H90.9754V18.475H83.4509V14.9005H83.4677ZM101.868 21.4315H105.421V24.7391H105.488C105.606 24.2712 105.823 23.8202 106.142 23.3859C106.46 22.9515 106.846 22.534 107.298 22.1832C107.751 21.8158 108.253 21.5319 108.807 21.2979C109.359 21.0809 109.929 20.9639 110.499 20.9639C110.935 20.9639 111.253 20.9808 111.421 20.9974C111.588 21.014 111.756 21.0475 111.94 21.0641V24.7056C111.672 24.6555 111.404 24.622 111.119 24.5886C110.834 24.5551 110.566 24.5385 110.298 24.5385C109.661 24.5385 109.058 24.6721 108.488 24.9228C107.918 25.1732 107.432 25.5574 107.013 26.0419C106.594 26.5429 106.259 27.1442 106.008 27.8793C105.757 28.6141 105.639 29.4494 105.639 30.4016V38.5529H101.852V21.4315H101.868ZM129.352 38.5697H125.632V36.181H125.565C125.096 37.0497 124.409 37.7345 123.487 38.2524C122.565 38.77 121.627 39.0373 120.672 39.0373C118.409 39.0373 116.767 38.4862 115.761 37.367C114.756 36.2479 114.253 34.5608 114.253 32.3057V21.4315H118.04V31.9383C118.04 33.4417 118.325 34.5107 118.912 35.1288C119.482 35.7466 120.303 36.0642 121.342 36.0642C122.146 36.0642 122.8 35.9472 123.336 35.6965C123.872 35.4461 124.308 35.1288 124.626 34.711C124.962 34.3101 125.196 33.8091 125.347 33.2411C125.498 32.6731 125.565 32.0553 125.565 31.3871V21.4484H129.352V38.5697ZM135.804 33.074C135.922 34.1765 136.341 34.9448 137.061 35.396C137.799 35.8302 138.67 36.0642 139.692 36.0642C140.044 36.0642 140.446 36.0307 140.899 35.9807C141.335 35.9305 141.763 35.8238 142.173 35.6633C142.575 35.5128 142.893 35.279 143.161 34.9783C143.413 34.6776 143.53 34.2935 143.513 33.8091C143.496 33.3247 143.312 32.9238 142.977 32.623C142.642 32.3057 142.223 32.0719 141.703 31.8713C141.123 31.6675 140.53 31.5057 139.927 31.3871C139.257 31.2535 138.586 31.103 137.899 30.9528C137.195 30.8023 136.508 30.602 135.855 30.3848C135.201 30.1676 134.615 29.8671 134.095 29.4828C133.575 29.1154 133.157 28.631 132.855 28.0464C132.537 27.4618 132.386 26.7433 132.386 25.8748C132.386 24.9394 132.62 24.1711 133.073 23.5364C133.525 22.9014 134.112 22.4004 134.799 22.0161C135.503 21.6321 136.274 21.3648 137.128 21.1977C137.983 21.0475 138.804 20.9639 139.575 20.9639C140.463 20.9639 141.318 21.0641 142.122 21.248C142.927 21.4315 143.664 21.7322 144.318 22.1666C144.971 22.5841 145.508 23.1355 145.943 23.8036C146.379 24.4718 146.647 25.2902 146.764 26.2422H142.809C142.625 25.3403 142.223 24.7222 141.569 24.4215C140.916 24.1041 140.161 23.9539 139.324 23.9539C139.055 23.9539 138.737 23.9705 138.368 24.0206C138.015 24.0685 137.666 24.1525 137.329 24.2712C137.011 24.3882 136.743 24.572 136.508 24.8057C136.29 25.0395 136.173 25.3403 136.173 25.7245C136.173 26.1921 136.341 26.5596 136.659 26.8437C136.977 27.1276 137.396 27.3613 137.916 27.5619C138.496 27.7659 139.09 27.9277 139.692 28.0464C140.363 28.18 141.05 28.3302 141.753 28.4805C142.441 28.631 143.111 28.8313 143.781 29.0485C144.452 29.2656 145.038 29.5664 145.558 29.9504C146.077 30.3347 146.496 30.8023 146.815 31.3703C147.133 31.9383 147.301 32.6565 147.301 33.4918C147.301 34.5107 147.066 35.3626 146.597 36.0808C146.128 36.7824 145.524 37.367 144.787 37.8012C144.05 38.2355 143.212 38.5697 142.307 38.77C141.42 38.9682 140.516 39.069 139.609 39.0708C138.519 39.0708 137.514 38.9538 136.592 38.7034C135.67 38.4527 134.866 38.0853 134.195 37.6008C133.525 37.0998 132.989 36.4817 132.603 35.7466C132.218 35.0118 132.017 34.1264 131.983 33.1075H135.804V33.074ZM148.306 21.4315H151.172V16.2868H154.959V21.4315H158.378V24.2546H154.959V33.4082C154.959 33.8091 154.976 34.143 155.009 34.4438C155.043 34.7279 155.127 34.9783 155.244 35.1789C155.361 35.3792 155.546 35.5297 155.797 35.6298C156.049 35.73 156.367 35.7801 156.803 35.7801C157.071 35.7801 157.339 35.7801 157.607 35.7635C157.875 35.7466 158.143 35.7134 158.411 35.6465V38.5697C157.993 38.6198 157.573 38.6533 157.188 38.7034C156.786 38.7534 156.384 38.77 155.965 38.77C154.959 38.77 154.155 38.6699 153.552 38.4862C152.948 38.3025 152.462 38.0183 152.127 37.6509C151.775 37.2835 151.557 36.8325 151.423 36.2811C151.292 35.6603 151.22 35.0284 151.205 34.3937V24.2878H148.34V21.4315H148.306ZM161.059 21.4315H164.645V23.7533H164.713C165.249 22.7512 165.986 22.0496 166.942 21.6152C167.897 21.1811 168.919 20.9639 170.042 20.9639C171.399 20.9639 172.572 21.1977 173.578 21.6822C174.583 22.1497 175.421 22.8013 176.092 23.6365C176.762 24.4718 177.248 25.4404 177.583 26.5429C177.918 27.6455 178.086 28.8313 178.086 30.084C178.086 31.2366 177.935 32.3558 177.633 33.4248C177.332 34.5107 176.879 35.4627 176.276 36.298C175.673 37.133 174.902 37.7846 173.963 38.2856C173.025 38.7869 171.936 39.0373 170.662 39.0373C170.106 39.037 169.55 38.9867 169.003 38.8871C168.456 38.7868 167.922 38.6243 167.411 38.4026C166.908 38.1854 166.422 37.9016 166.003 37.5508C165.567 37.1999 165.215 36.7991 164.914 36.3481H164.847V44.9005H161.059V21.4315ZM174.298 30.0174C174.298 29.249 174.198 28.4973 173.997 27.7622C173.796 27.0274 173.494 26.3927 173.092 25.8247C172.699 25.2677 172.19 24.8057 171.6 24.4718C170.997 24.1376 170.31 23.9539 169.539 23.9539C167.947 23.9539 166.74 24.505 165.936 25.6075C165.131 26.71 164.729 28.18 164.729 30.0174C164.729 30.8858 164.83 31.6876 165.048 32.4227C165.266 33.1576 165.567 33.7925 166.003 34.327C166.422 34.8615 166.925 35.279 167.511 35.5798C168.098 35.8971 168.785 36.0474 169.556 36.0474C170.427 36.0474 171.148 35.8636 171.751 35.5128C172.354 35.162 172.84 34.6944 173.226 34.1431C173.621 33.5616 173.906 32.91 174.064 32.2221C174.215 31.5039 174.298 30.7691 174.298 30.0174ZM180.985 14.9005H184.773V18.475H180.985V14.9005ZM180.985 21.4315H184.773V38.5697H180.985V21.4315ZM188.158 14.9005H191.945V38.5697H188.158V14.9005ZM203.559 39.0373C202.184 39.0373 200.961 38.8035 199.888 38.3525C198.816 37.9016 197.911 37.2666 197.157 36.4817C196.42 35.6799 195.85 34.7279 195.464 33.6254C195.079 32.5229 194.878 31.3036 194.878 29.9839C194.878 28.681 195.079 27.4784 195.464 26.3758C195.85 25.2736 196.42 24.3213 197.157 23.5195C197.894 22.7177 198.816 22.0997 199.888 21.6487C200.961 21.1977 202.184 20.9639 203.559 20.9639C204.933 20.9639 206.156 21.1977 207.229 21.6487C208.301 22.0997 209.206 22.7346 209.96 23.5195C210.698 24.3213 211.267 25.2736 211.653 26.3758C212.038 27.4784 212.239 28.681 212.239 29.9839C212.239 31.3036 212.038 32.5229 211.653 33.6254C211.267 34.7279 210.698 35.6799 209.96 36.4817C209.223 37.2835 208.301 37.9016 207.229 38.3525C206.156 38.8035 204.933 39.0373 203.559 39.0373ZM203.559 36.0474C204.396 36.0474 205.134 35.8636 205.754 35.5128C206.374 35.162 206.877 34.6944 207.279 34.1264C207.681 33.5584 207.966 32.9071 208.167 32.1889C208.352 31.4704 208.452 30.7356 208.452 29.9839C208.452 29.249 208.352 28.5308 208.167 27.7957C207.995 27.0985 207.694 26.441 207.279 25.8582C206.877 25.2902 206.374 24.8392 205.754 24.4884C205.134 24.1376 204.396 23.9539 203.559 23.9539C202.721 23.9539 201.983 24.1376 201.363 24.4884C200.743 24.8392 200.24 25.3068 199.838 25.8582C199.436 26.4259 199.151 27.0609 198.95 27.7957C198.766 28.5308 198.665 29.249 198.665 29.9839C198.665 30.7356 198.766 31.4704 198.95 32.1889C199.134 32.9071 199.436 33.5584 199.838 34.1264C200.24 34.6944 200.743 35.162 201.363 35.5128C201.983 35.8803 202.721 36.0474 203.559 36.0474ZM213.346 21.4315H216.211V16.2868H219.999V21.4315H223.417V24.2546H219.999V33.4082C219.999 33.8091 220.016 34.143 220.049 34.4438C220.082 34.7279 220.166 34.9783 220.284 35.1789C220.401 35.3792 220.585 35.5297 220.837 35.6298C221.088 35.73 221.406 35.7801 221.842 35.7801C222.11 35.7801 222.378 35.7801 222.646 35.7635C222.915 35.7466 223.183 35.7134 223.451 35.6465V38.5697C223.032 38.6198 222.613 38.6533 222.228 38.7034C221.825 38.7534 221.423 38.77 221.004 38.77C219.999 38.77 219.194 38.6699 218.591 38.4862C217.988 38.3025 217.502 38.0183 217.166 37.6509C216.815 37.2835 216.597 36.8325 216.463 36.2811C216.332 35.6603 216.259 35.0284 216.245 34.3937V24.2878H213.379V21.4315H213.346Z" fill="white"/>
<path d="M94.3732 52.5848L88.2272 53.2661C88.0056 53.293 87.8096 53.4411 87.7361 53.6663C87.6626 53.8915 87.7361 54.126 87.8994 54.2741C89.7264 55.9413 92.4716 58.438 92.4716 58.438C92.4692 58.438 91.7179 62.0698 91.2186 64.493C91.1948 64.6026 91.2034 64.7169 91.2433 64.8217C91.2833 64.9266 91.3529 65.0176 91.4436 65.0836C91.5344 65.1496 91.6424 65.1878 91.7545 65.1936C91.8666 65.1993 91.9779 65.1724 92.0749 65.116C94.2262 63.8933 97.4486 62.0546 97.4486 62.0546L102.82 65.1171C103.016 65.2245 103.261 65.2221 103.451 65.0833C103.542 65.0173 103.611 64.9266 103.651 64.8222C103.692 64.7177 103.701 64.6038 103.679 64.4941L102.429 58.438L107.001 54.2776C107.084 54.2023 107.143 54.1047 107.172 53.9965C107.201 53.8884 107.198 53.7742 107.163 53.6677C107.129 53.5612 107.064 53.4669 106.978 53.3961C106.891 53.3253 106.786 53.281 106.675 53.2685C104.215 52.9931 100.527 52.5848 100.527 52.5848L97.9806 46.9498C97.9344 46.8479 97.8598 46.7614 97.7658 46.7008C97.6717 46.6402 97.5622 46.6079 97.4503 46.6079C97.3384 46.6079 97.2289 46.6402 97.1349 46.7008C97.0408 46.7614 96.9663 46.8479 96.9201 46.9498L94.3732 52.5848Z" fill="#FFE234"/>
<path d="M122.373 52.5848L116.227 53.2661C116.006 53.293 115.81 53.4411 115.736 53.6663C115.663 53.8915 115.736 54.126 115.899 54.2741C117.726 55.9413 120.472 58.438 120.472 58.438C120.469 58.438 119.718 62.0698 119.219 64.493C119.195 64.6026 119.203 64.7169 119.243 64.8217C119.283 64.9266 119.353 65.0176 119.444 65.0836C119.534 65.1496 119.642 65.1878 119.754 65.1936C119.867 65.1993 119.978 65.1724 120.075 65.116C122.226 63.8933 125.449 62.0546 125.449 62.0546L130.82 65.1171C131.016 65.2245 131.261 65.2221 131.451 65.0833C131.542 65.0173 131.611 64.9266 131.651 64.8222C131.692 64.7177 131.701 64.6038 131.679 64.4941L130.429 58.438L135.001 54.2776C135.084 54.2023 135.143 54.1047 135.172 53.9965C135.201 53.8884 135.198 53.7742 135.163 53.6677C135.129 53.5612 135.064 53.4669 134.978 53.3961C134.891 53.3253 134.786 53.281 134.675 53.2685C132.215 52.9931 128.527 52.5848 128.527 52.5848L125.981 46.9498C125.934 46.8479 125.86 46.7614 125.766 46.7008C125.672 46.6402 125.562 46.6079 125.45 46.6079C125.338 46.6079 125.229 46.6402 125.135 46.7008C125.041 46.7614 124.966 46.8479 124.92 46.9498L122.373 52.5848Z" fill="#FFE234"/>
<path d="M150.373 52.5848L144.227 53.2661C144.006 53.293 143.81 53.4411 143.736 53.6663C143.663 53.8915 143.736 54.126 143.899 54.2741C145.726 55.9413 148.472 58.438 148.472 58.438C148.469 58.438 147.718 62.0698 147.219 64.493C147.195 64.6026 147.203 64.7169 147.243 64.8217C147.283 64.9266 147.353 65.0176 147.444 65.0836C147.534 65.1496 147.642 65.1878 147.754 65.1936C147.867 65.1993 147.978 65.1724 148.075 65.116C150.226 63.8933 153.449 62.0546 153.449 62.0546L158.82 65.1171C159.016 65.2245 159.261 65.2221 159.451 65.0833C159.542 65.0173 159.611 64.9266 159.651 64.8222C159.692 64.7177 159.701 64.6038 159.679 64.4941L158.429 58.438L163.001 54.2776C163.084 54.2023 163.143 54.1047 163.172 53.9965C163.201 53.8884 163.198 53.7742 163.163 53.6677C163.129 53.5612 163.064 53.4669 162.978 53.3961C162.891 53.3253 162.786 53.281 162.675 53.2685C160.215 52.9931 156.527 52.5848 156.527 52.5848L153.981 46.9498C153.934 46.8479 153.86 46.7614 153.766 46.7008C153.672 46.6402 153.562 46.6079 153.45 46.6079C153.338 46.6079 153.229 46.6402 153.135 46.7008C153.041 46.7614 152.966 46.8479 152.92 46.9498L150.373 52.5848Z" fill="#FFE234"/>
<path d="M178.373 52.5848L172.227 53.2661C172.006 53.293 171.81 53.4411 171.736 53.6663C171.663 53.8915 171.736 54.126 171.899 54.2741C173.726 55.9413 176.472 58.438 176.472 58.438C176.469 58.438 175.718 62.0698 175.219 64.493C175.195 64.6026 175.203 64.7169 175.243 64.8217C175.283 64.9266 175.353 65.0176 175.444 65.0836C175.534 65.1496 175.642 65.1878 175.754 65.1936C175.867 65.1993 175.978 65.1724 176.075 65.116C178.226 63.8933 181.449 62.0546 181.449 62.0546L186.82 65.1171C187.016 65.2245 187.261 65.2221 187.451 65.0833C187.542 65.0173 187.611 64.9266 187.651 64.8222C187.692 64.7177 187.701 64.6038 187.679 64.4941L186.429 58.438L191.001 54.2776C191.084 54.2023 191.143 54.1047 191.172 53.9965C191.201 53.8884 191.198 53.7742 191.163 53.6677C191.129 53.5612 191.064 53.4669 190.978 53.3961C190.891 53.3253 190.786 53.281 190.675 53.2685C188.215 52.9931 184.527 52.5848 184.527 52.5848L181.981 46.9498C181.934 46.8479 181.86 46.7614 181.766 46.7008C181.672 46.6402 181.562 46.6079 181.45 46.6079C181.338 46.6079 181.229 46.6402 181.135 46.7008C181.041 46.7614 180.966 46.8479 180.92 46.9498L178.373 52.5848Z" fill="#FFE234"/>
<path d="M206.373 52.5848L200.227 53.2661C200.006 53.293 199.81 53.4411 199.736 53.6663C199.663 53.8915 199.736 54.126 199.899 54.2741C201.726 55.9413 204.472 58.438 204.472 58.438C204.469 58.438 203.718 62.0698 203.219 64.493C203.195 64.6026 203.203 64.7169 203.243 64.8217C203.283 64.9266 203.353 65.0176 203.444 65.0836C203.534 65.1496 203.642 65.1878 203.754 65.1936C203.867 65.1993 203.978 65.1724 204.075 65.116C206.226 63.8933 209.449 62.0546 209.449 62.0546L214.82 65.1171C215.016 65.2245 215.261 65.2221 215.451 65.0833C215.542 65.0173 215.611 64.9266 215.651 64.8222C215.692 64.7177 215.701 64.6038 215.679 64.4941L214.429 58.438L219.001 54.2776C219.084 54.2023 219.143 54.1047 219.172 53.9965C219.201 53.8884 219.198 53.7742 219.163 53.6677C219.129 53.5612 219.064 53.4669 218.978 53.3961C218.891 53.3253 218.786 53.281 218.675 53.2685C216.215 52.9931 212.527 52.5848 212.527 52.5848L209.981 46.9498C209.934 46.8479 209.86 46.7614 209.766 46.7008C209.672 46.6402 209.562 46.6079 209.45 46.6079C209.338 46.6079 209.229 46.6402 209.135 46.7008C209.041 46.7614 208.966 46.8479 208.92 46.9498L206.373 52.5848Z" fill="#FFE234"/>
</svg>
