<svg width="48" height="48" viewBox="0 0 48 48" fill="none" xmlns="http://www.w3.org/2000/svg">
<g clip-path="url(#clip0_429_61)">
<path d="M5 42.301C5.83333 42.301 7.9 41.701 9.5 39.301C10.1667 38.301 11.7 35.801 12.5 33.801H13C12.5 35.1343 11.7 38.201 12.5 39.801C12.8333 40.6343 14.2 42.301 17 42.301V42.801H5V42.301Z" fill="white"/>
<path d="M17.3398 30.0259L17.5 30.801C18.0456 28.1667 19.4921 26.142 21.311 25.4453L23 24.801L21.311 24.1565C19.4921 23.4599 18.05 21.4352 17.5 18.801C16.9543 21.4352 15.5079 23.4599 13.689 24.1565L12 24.801L14.226 25.65C15.7157 26.2204 16.8937 27.875 17.3398 30.0259Z" fill="#FF6B6B"/>
<path d="M27.5 42.2938C29.3333 42.4628 32.6 41.6855 31 37.2235L27.5 28.0967L22.5 16.4348C21.8333 15.0826 20.2 11.8713 19 9.84316C20.1667 9.67414 22.9 8.82907 24.5 6.8009L27.5 13.8995L31 22.5193L35.5 33.1671L37 36.7164C38 38.7446 39.8 42.6994 43 42.2938V42.8008H27.5V42.2938Z" fill="white"/>
</g>
<defs>
<clipPath id="clip0_429_61">
<rect width="38" height="37" fill="white" transform="translate(5 5.90045)"/>
</clipPath>
</defs>
</svg>
